<mxfile host="app.diagrams.net" agent="Mozilla/5.0 (Windows NT 10.0; Win64; x64) AppleWebKit/537.36 (KHTML, like Gecko) Chrome/132.0.0.0 Safari/537.36" version="26.0.10">
  <diagram name="Page-1" id="6epfL8mWPRys8y6O-dfD">
    <mxGraphModel dx="1984" dy="1689" grid="1" gridSize="10" guides="1" tooltips="1" connect="1" arrows="1" fold="1" page="1" pageScale="1" pageWidth="850" pageHeight="1100" math="0" shadow="0">
      <root>
        <mxCell id="0" />
        <mxCell id="1" parent="0" />
        <mxCell id="Bt8S3rhzKwj_q8lDQBbi-6" value="" style="edgeStyle=orthogonalEdgeStyle;rounded=0;orthogonalLoop=1;jettySize=auto;html=1;curved=1;" edge="1" parent="1" source="Bt8S3rhzKwj_q8lDQBbi-1" target="Bt8S3rhzKwj_q8lDQBbi-3">
          <mxGeometry relative="1" as="geometry" />
        </mxCell>
        <mxCell id="Bt8S3rhzKwj_q8lDQBbi-7" style="edgeStyle=orthogonalEdgeStyle;rounded=0;orthogonalLoop=1;jettySize=auto;html=1;exitX=0.5;exitY=1;exitDx=0;exitDy=0;entryX=0.5;entryY=0;entryDx=0;entryDy=0;curved=1;" edge="1" parent="1" source="Bt8S3rhzKwj_q8lDQBbi-1" target="Bt8S3rhzKwj_q8lDQBbi-2">
          <mxGeometry relative="1" as="geometry" />
        </mxCell>
        <mxCell id="Bt8S3rhzKwj_q8lDQBbi-8" style="edgeStyle=orthogonalEdgeStyle;rounded=0;orthogonalLoop=1;jettySize=auto;html=1;exitX=0.5;exitY=1;exitDx=0;exitDy=0;entryX=0.5;entryY=0;entryDx=0;entryDy=0;curved=1;" edge="1" parent="1" source="Bt8S3rhzKwj_q8lDQBbi-1" target="Bt8S3rhzKwj_q8lDQBbi-4">
          <mxGeometry relative="1" as="geometry" />
        </mxCell>
        <mxCell id="Bt8S3rhzKwj_q8lDQBbi-1" value="Employee" style="rounded=1;whiteSpace=wrap;html=1;" vertex="1" parent="1">
          <mxGeometry x="330" y="10" width="80" height="30" as="geometry" />
        </mxCell>
        <mxCell id="Bt8S3rhzKwj_q8lDQBbi-20" style="edgeStyle=orthogonalEdgeStyle;rounded=0;orthogonalLoop=1;jettySize=auto;html=1;exitX=0.5;exitY=1;exitDx=0;exitDy=0;entryX=1;entryY=0.5;entryDx=0;entryDy=0;curved=1;" edge="1" parent="1" source="Bt8S3rhzKwj_q8lDQBbi-2" target="Bt8S3rhzKwj_q8lDQBbi-12">
          <mxGeometry relative="1" as="geometry" />
        </mxCell>
        <mxCell id="Bt8S3rhzKwj_q8lDQBbi-21" style="edgeStyle=orthogonalEdgeStyle;rounded=0;orthogonalLoop=1;jettySize=auto;html=1;exitX=0.5;exitY=1;exitDx=0;exitDy=0;entryX=1;entryY=0.5;entryDx=0;entryDy=0;curved=1;" edge="1" parent="1" source="Bt8S3rhzKwj_q8lDQBbi-2" target="Bt8S3rhzKwj_q8lDQBbi-11">
          <mxGeometry relative="1" as="geometry" />
        </mxCell>
        <mxCell id="Bt8S3rhzKwj_q8lDQBbi-22" style="edgeStyle=orthogonalEdgeStyle;rounded=0;orthogonalLoop=1;jettySize=auto;html=1;exitX=0.5;exitY=1;exitDx=0;exitDy=0;entryX=1;entryY=0.5;entryDx=0;entryDy=0;curved=1;" edge="1" parent="1" source="Bt8S3rhzKwj_q8lDQBbi-2" target="Bt8S3rhzKwj_q8lDQBbi-10">
          <mxGeometry relative="1" as="geometry" />
        </mxCell>
        <mxCell id="Bt8S3rhzKwj_q8lDQBbi-2" value="IT" style="rounded=1;whiteSpace=wrap;html=1;" vertex="1" parent="1">
          <mxGeometry x="160" y="100" width="60" height="20" as="geometry" />
        </mxCell>
        <mxCell id="Bt8S3rhzKwj_q8lDQBbi-23" style="edgeStyle=orthogonalEdgeStyle;rounded=0;orthogonalLoop=1;jettySize=auto;html=1;exitX=0.5;exitY=1;exitDx=0;exitDy=0;curved=1;" edge="1" parent="1" source="Bt8S3rhzKwj_q8lDQBbi-3" target="Bt8S3rhzKwj_q8lDQBbi-15">
          <mxGeometry relative="1" as="geometry" />
        </mxCell>
        <mxCell id="Bt8S3rhzKwj_q8lDQBbi-24" style="edgeStyle=orthogonalEdgeStyle;rounded=0;orthogonalLoop=1;jettySize=auto;html=1;exitX=0.5;exitY=1;exitDx=0;exitDy=0;entryX=0.5;entryY=0;entryDx=0;entryDy=0;curved=1;" edge="1" parent="1" source="Bt8S3rhzKwj_q8lDQBbi-3" target="Bt8S3rhzKwj_q8lDQBbi-14">
          <mxGeometry relative="1" as="geometry" />
        </mxCell>
        <mxCell id="Bt8S3rhzKwj_q8lDQBbi-25" style="edgeStyle=orthogonalEdgeStyle;rounded=0;orthogonalLoop=1;jettySize=auto;html=1;exitX=0.5;exitY=1;exitDx=0;exitDy=0;entryX=0.5;entryY=0;entryDx=0;entryDy=0;curved=1;" edge="1" parent="1" source="Bt8S3rhzKwj_q8lDQBbi-3" target="Bt8S3rhzKwj_q8lDQBbi-13">
          <mxGeometry relative="1" as="geometry" />
        </mxCell>
        <mxCell id="Bt8S3rhzKwj_q8lDQBbi-3" value="SALES" style="rounded=1;whiteSpace=wrap;html=1;" vertex="1" parent="1">
          <mxGeometry x="320" y="100" width="90" height="20" as="geometry" />
        </mxCell>
        <mxCell id="Bt8S3rhzKwj_q8lDQBbi-26" style="edgeStyle=orthogonalEdgeStyle;rounded=0;orthogonalLoop=1;jettySize=auto;html=1;exitX=0.5;exitY=1;exitDx=0;exitDy=0;curved=1;" edge="1" parent="1" source="Bt8S3rhzKwj_q8lDQBbi-4" target="Bt8S3rhzKwj_q8lDQBbi-17">
          <mxGeometry relative="1" as="geometry">
            <Array as="points">
              <mxPoint x="570" y="135" />
            </Array>
          </mxGeometry>
        </mxCell>
        <mxCell id="Bt8S3rhzKwj_q8lDQBbi-27" style="edgeStyle=orthogonalEdgeStyle;rounded=0;orthogonalLoop=1;jettySize=auto;html=1;exitX=0.5;exitY=1;exitDx=0;exitDy=0;entryX=0;entryY=0.5;entryDx=0;entryDy=0;curved=1;" edge="1" parent="1" source="Bt8S3rhzKwj_q8lDQBbi-4" target="Bt8S3rhzKwj_q8lDQBbi-18">
          <mxGeometry relative="1" as="geometry" />
        </mxCell>
        <mxCell id="Bt8S3rhzKwj_q8lDQBbi-4" value="MARKETING" style="rounded=1;whiteSpace=wrap;html=1;" vertex="1" parent="1">
          <mxGeometry x="530" y="100" width="80" height="20" as="geometry" />
        </mxCell>
        <mxCell id="Bt8S3rhzKwj_q8lDQBbi-9" value="Department" style="text;html=1;align=center;verticalAlign=middle;resizable=0;points=[];autosize=1;strokeColor=none;fillColor=none;" vertex="1" parent="1">
          <mxGeometry x="100" y="70" width="90" height="30" as="geometry" />
        </mxCell>
        <mxCell id="Bt8S3rhzKwj_q8lDQBbi-10" value="MUMBAI" style="rounded=1;whiteSpace=wrap;html=1;" vertex="1" parent="1">
          <mxGeometry x="40" y="280" width="80" height="30" as="geometry" />
        </mxCell>
        <mxCell id="Bt8S3rhzKwj_q8lDQBbi-11" value="PUNE" style="rounded=1;whiteSpace=wrap;html=1;" vertex="1" parent="1">
          <mxGeometry x="-40" y="220" width="80" height="30" as="geometry" />
        </mxCell>
        <mxCell id="Bt8S3rhzKwj_q8lDQBbi-35" style="edgeStyle=orthogonalEdgeStyle;rounded=0;orthogonalLoop=1;jettySize=auto;html=1;exitX=0;exitY=0.5;exitDx=0;exitDy=0;entryX=1;entryY=0.5;entryDx=0;entryDy=0;" edge="1" parent="1" source="Bt8S3rhzKwj_q8lDQBbi-12" target="Bt8S3rhzKwj_q8lDQBbi-32">
          <mxGeometry relative="1" as="geometry" />
        </mxCell>
        <mxCell id="Bt8S3rhzKwj_q8lDQBbi-12" value="BANGALORE" style="rounded=1;whiteSpace=wrap;html=1;" vertex="1" parent="1">
          <mxGeometry x="-60" y="150" width="80" height="30" as="geometry" />
        </mxCell>
        <mxCell id="Bt8S3rhzKwj_q8lDQBbi-13" value="MUMBAI" style="rounded=1;whiteSpace=wrap;html=1;" vertex="1" parent="1">
          <mxGeometry x="440" y="300" width="80" height="30" as="geometry" />
        </mxCell>
        <mxCell id="Bt8S3rhzKwj_q8lDQBbi-14" value="PUNE" style="rounded=1;whiteSpace=wrap;html=1;" vertex="1" parent="1">
          <mxGeometry x="325" y="320" width="80" height="30" as="geometry" />
        </mxCell>
        <mxCell id="Bt8S3rhzKwj_q8lDQBbi-15" value="BANGALORE" style="rounded=1;whiteSpace=wrap;html=1;" vertex="1" parent="1">
          <mxGeometry x="200" y="300" width="80" height="30" as="geometry" />
        </mxCell>
        <mxCell id="Bt8S3rhzKwj_q8lDQBbi-17" value="MUMBAI" style="rounded=1;whiteSpace=wrap;html=1;" vertex="1" parent="1">
          <mxGeometry x="700" y="120" width="80" height="30" as="geometry" />
        </mxCell>
        <mxCell id="Bt8S3rhzKwj_q8lDQBbi-18" value="PUNE" style="rounded=1;whiteSpace=wrap;html=1;" vertex="1" parent="1">
          <mxGeometry x="670" y="200" width="80" height="30" as="geometry" />
        </mxCell>
        <mxCell id="Bt8S3rhzKwj_q8lDQBbi-19" value="BANGALORE" style="rounded=1;whiteSpace=wrap;html=1;" vertex="1" parent="1">
          <mxGeometry x="590" y="270" width="80" height="30" as="geometry" />
        </mxCell>
        <mxCell id="Bt8S3rhzKwj_q8lDQBbi-28" style="edgeStyle=orthogonalEdgeStyle;rounded=0;orthogonalLoop=1;jettySize=auto;html=1;exitX=0.5;exitY=1;exitDx=0;exitDy=0;entryX=0;entryY=0.5;entryDx=0;entryDy=0;curved=1;" edge="1" parent="1" source="Bt8S3rhzKwj_q8lDQBbi-4" target="Bt8S3rhzKwj_q8lDQBbi-19">
          <mxGeometry relative="1" as="geometry" />
        </mxCell>
        <mxCell id="Bt8S3rhzKwj_q8lDQBbi-29" value="City" style="text;html=1;align=center;verticalAlign=middle;resizable=0;points=[];autosize=1;strokeColor=none;fillColor=none;" vertex="1" parent="1">
          <mxGeometry x="-80" y="120" width="40" height="30" as="geometry" />
        </mxCell>
        <mxCell id="Bt8S3rhzKwj_q8lDQBbi-31" value="Employee Record" style="swimlane;fontStyle=0;childLayout=stackLayout;horizontal=1;startSize=30;horizontalStack=0;resizeParent=1;resizeParentMax=0;resizeLast=0;collapsible=1;marginBottom=0;whiteSpace=wrap;html=1;" vertex="1" parent="1">
          <mxGeometry x="-310" y="120" width="140" height="120" as="geometry" />
        </mxCell>
        <mxCell id="Bt8S3rhzKwj_q8lDQBbi-32" value="eid" style="text;strokeColor=none;fillColor=none;align=left;verticalAlign=middle;spacingLeft=4;spacingRight=4;overflow=hidden;points=[[0,0.5],[1,0.5]];portConstraint=eastwest;rotatable=0;whiteSpace=wrap;html=1;" vertex="1" parent="Bt8S3rhzKwj_q8lDQBbi-31">
          <mxGeometry y="30" width="140" height="30" as="geometry" />
        </mxCell>
        <mxCell id="Bt8S3rhzKwj_q8lDQBbi-33" value="name" style="text;strokeColor=none;fillColor=none;align=left;verticalAlign=middle;spacingLeft=4;spacingRight=4;overflow=hidden;points=[[0,0.5],[1,0.5]];portConstraint=eastwest;rotatable=0;whiteSpace=wrap;html=1;" vertex="1" parent="Bt8S3rhzKwj_q8lDQBbi-31">
          <mxGeometry y="60" width="140" height="30" as="geometry" />
        </mxCell>
        <mxCell id="Bt8S3rhzKwj_q8lDQBbi-34" value="age" style="text;strokeColor=none;fillColor=none;align=left;verticalAlign=middle;spacingLeft=4;spacingRight=4;overflow=hidden;points=[[0,0.5],[1,0.5]];portConstraint=eastwest;rotatable=0;whiteSpace=wrap;html=1;" vertex="1" parent="Bt8S3rhzKwj_q8lDQBbi-31">
          <mxGeometry y="90" width="140" height="30" as="geometry" />
        </mxCell>
        <mxCell id="Bt8S3rhzKwj_q8lDQBbi-36" value="Employee Record" style="swimlane;fontStyle=0;childLayout=stackLayout;horizontal=1;startSize=30;horizontalStack=0;resizeParent=1;resizeParentMax=0;resizeLast=0;collapsible=1;marginBottom=0;whiteSpace=wrap;html=1;" vertex="1" parent="1">
          <mxGeometry x="-310" y="-10" width="140" height="120" as="geometry" />
        </mxCell>
        <mxCell id="Bt8S3rhzKwj_q8lDQBbi-37" value="eid" style="text;strokeColor=none;fillColor=none;align=left;verticalAlign=middle;spacingLeft=4;spacingRight=4;overflow=hidden;points=[[0,0.5],[1,0.5]];portConstraint=eastwest;rotatable=0;whiteSpace=wrap;html=1;" vertex="1" parent="Bt8S3rhzKwj_q8lDQBbi-36">
          <mxGeometry y="30" width="140" height="30" as="geometry" />
        </mxCell>
        <mxCell id="Bt8S3rhzKwj_q8lDQBbi-38" value="name" style="text;strokeColor=none;fillColor=none;align=left;verticalAlign=middle;spacingLeft=4;spacingRight=4;overflow=hidden;points=[[0,0.5],[1,0.5]];portConstraint=eastwest;rotatable=0;whiteSpace=wrap;html=1;" vertex="1" parent="Bt8S3rhzKwj_q8lDQBbi-36">
          <mxGeometry y="60" width="140" height="30" as="geometry" />
        </mxCell>
        <mxCell id="Bt8S3rhzKwj_q8lDQBbi-39" value="age" style="text;strokeColor=none;fillColor=none;align=left;verticalAlign=middle;spacingLeft=4;spacingRight=4;overflow=hidden;points=[[0,0.5],[1,0.5]];portConstraint=eastwest;rotatable=0;whiteSpace=wrap;html=1;" vertex="1" parent="Bt8S3rhzKwj_q8lDQBbi-36">
          <mxGeometry y="90" width="140" height="30" as="geometry" />
        </mxCell>
        <mxCell id="Bt8S3rhzKwj_q8lDQBbi-40" style="edgeStyle=orthogonalEdgeStyle;rounded=0;orthogonalLoop=1;jettySize=auto;html=1;exitX=0;exitY=0.5;exitDx=0;exitDy=0;entryX=1.022;entryY=1.065;entryDx=0;entryDy=0;entryPerimeter=0;curved=1;" edge="1" parent="1" source="Bt8S3rhzKwj_q8lDQBbi-12" target="Bt8S3rhzKwj_q8lDQBbi-37">
          <mxGeometry relative="1" as="geometry" />
        </mxCell>
      </root>
    </mxGraphModel>
  </diagram>
</mxfile>
